# Blender v2.90.0 OBJ File: 'airHockey_Arena.blend'
# www.blender.org
mtllib airHockey_ArenaTriangulated.mtl
o Cube
v 1.702111 0.265199 -3.611124
v 1.702111 -0.265199 -3.611124
v 1.702111 0.265199 3.611124
v 1.702111 -0.265199 3.611124
v -1.702111 0.265199 -3.611124
v -1.702111 -0.265199 -3.611124
v -1.702111 0.265199 3.611124
v -1.702111 -0.265199 3.611124
v 1.522415 0.265199 3.229888
v -1.522415 0.265199 3.229888
v 1.522415 0.265199 -3.229888
v -1.522415 0.265199 -3.229888
v 1.522415 0.047285 3.229888
v -1.522415 0.047285 3.229888
v 1.522415 0.047285 -3.229888
v -1.522415 0.047285 -3.229888
v 0.532845 0.123462 3.229888
v -0.532845 0.123462 3.229888
v 0.532845 0.047192 3.229888
v -0.532845 0.047192 3.229888
v -0.532845 0.123462 -3.229888
v 0.532845 0.123462 -3.229888
v -0.532845 0.047192 -3.229888
v 0.532845 0.047192 -3.229888
v -1.702111 -0.265199 -1.805562
v -1.702111 -0.265199 0.000000
v -1.702111 -0.265199 1.805562
v 1.702111 0.265199 -1.805562
v 1.702111 0.265199 0.000000
v 1.702111 0.265199 1.805562
v -1.702111 0.265199 1.805562
v -1.702111 0.265199 0.000000
v -1.702111 0.265199 -1.805562
v 1.702111 -0.265199 1.805562
v 1.702111 -0.265199 0.000000
v 1.702111 -0.265199 -1.805562
v 1.522415 0.265199 -1.614944
v 1.522415 0.265199 0.000000
v 1.522415 0.265199 1.614944
v -1.522415 0.265199 1.614944
v -1.522415 0.265199 0.000000
v -1.522415 0.265199 -1.614944
v 1.522415 0.047285 -1.614944
v 1.522415 0.047285 0.000000
v 1.522415 0.047285 1.614944
v -1.522415 0.047285 1.614944
v -1.522415 0.047285 0.000000
v -1.522415 0.047285 -1.614944
vt 0.357550 0.259101
vt 0.373267 0.498028
vt 0.354778 0.504594
vt 0.556642 0.228113
vt 0.797246 0.005157
vt 0.761049 0.302714
vt 0.404940 0.215215
vt 0.108202 0.136535
vt 0.145181 0.069566
vt 0.533289 0.810021
vt 0.274586 0.874697
vt 0.274586 0.810021
vt 0.524350 0.270705
vt 0.739264 0.357785
vt 0.016130 0.545483
vt 0.483463 0.026267
vt 0.494570 0.006518
vt 0.758703 0.463345
vt 0.698955 0.447353
vt 0.766699 0.447353
vt 0.404985 0.565039
vt 0.426976 0.562740
vt 0.933966 0.841366
vt 0.867365 0.574965
vt 0.933966 0.574965
vt 0.502071 0.988889
vt 0.274619 0.992859
vt 0.274586 0.988889
vt 0.993652 0.137572
vt 0.869182 0.069828
vt 0.993652 0.069828
vt 0.682437 0.582841
vt 0.557967 0.515097
vt 0.682437 0.515097
vt 0.867365 0.841366
vt 0.862716 0.575003
vt 0.993652 0.408546
vt 0.912693 0.225638
vt 0.682437 0.853815
vt 0.601478 0.670907
vt 0.993652 0.476289
vt 0.869182 0.408546
vt 0.993652 0.544033
vt 0.869182 0.476289
vt 0.557967 0.447353
vt 0.682437 0.447353
vt 0.560369 0.875147
vt 0.502521 0.981434
vt 0.502521 0.875147
vt 0.618217 0.875147
vt 0.560369 0.981434
vt 0.869182 0.002085
vt 0.993652 0.002084
vt 0.502071 0.932018
vt 0.274586 0.932018
vt 0.502071 0.875147
vt 1.000566 0.841366
vt 1.000566 0.574965
vt 0.543082 0.225488
vt 0.495982 0.323852
vt 0.510277 0.269168
vt 0.445045 0.651823
vt 0.464011 0.643080
vt 0.371821 0.265670
vt 0.450597 0.153348
vt 0.422112 0.220059
vt 0.834443 0.463345
vt 0.834443 0.447353
vt 0.040062 0.663457
vt 0.065806 0.758145
vt 0.716969 0.413032
vt 0.998973 0.849067
vt 0.696014 0.924806
vt 0.696014 0.849067
vt 0.998973 0.924806
vt 0.696014 1.000546
vt 0.533289 0.745346
vt 0.274586 0.745346
vt 0.682963 0.463345
vt 0.758703 0.766304
vt 0.682964 0.766304
vt 0.834443 0.766304
vt 0.182860 0.002632
vt 0.533289 0.874697
vt 0.274720 0.996829
vt 0.869182 0.137572
vt 0.557967 0.582841
vt 0.858068 0.575122
vt 0.912693 0.320479
vt 0.869128 0.320479
vt 0.869128 0.225638
vt 0.557967 0.853815
vt 0.601478 0.765748
vt 0.557913 0.765748
vt 0.557913 0.670907
vt 0.869182 0.544033
vt 0.618217 0.981434
vt 0.274586 0.875147
vt 0.484509 0.317769
vt 0.464010 0.163239
vt 0.998973 1.000546
vn 0.0000 1.0000 -0.0000
vn 0.0000 0.0000 1.0000
vn -1.0000 0.0000 0.0000
vn 0.0000 -1.0000 0.0000
vn 1.0000 0.0000 0.0000
vn 0.0000 0.0000 -1.0000
vn 0.0000 0.0026 -1.0000
vn 0.0000 0.0026 1.0000
usemtl Material
s off
f 5/1/1 11/2/1 1/3/1
f 3/4/2 8/5/2 4/6/2
f 33/7/3 6/8/3 25/9/3
f 34/10/4 8/11/4 27/12/4
f 30/13/5 4/6/5 34/14/5
f 5/1/6 2/15/6 6/8/6
f 3/4/1 10/16/1 7/17/1
f 31/18/1 10/19/1 40/20/1
f 28/21/1 11/2/1 37/22/1
f 46/23/1 13/24/1 45/25/1
f 15/26/7 23/27/7 16/28/7
f 11/29/3 43/30/3 37/31/3
f 10/32/5 46/33/5 40/34/5
f 14/35/8 19/36/8 13/24/8
f 11/29/2 12/37/2 22/38/2
f 10/32/6 9/39/6 18/40/6
f 42/41/5 16/42/5 12/37/5
f 41/43/5 48/44/5 42/41/5
f 40/34/5 47/45/5 41/46/5
f 39/47/3 13/48/3 9/49/3
f 38/50/3 45/51/3 39/47/3
f 37/31/3 44/52/3 38/53/3
f 16/28/1 43/54/1 15/26/1
f 48/55/1 44/56/1 43/54/1
f 47/57/1 45/25/1 44/58/1
f 30/13/1 9/59/1 3/4/1
f 29/60/1 39/61/1 30/13/1
f 29/62/1 37/22/1 38/63/1
f 33/7/1 12/64/1 5/1/1
f 32/65/1 42/66/1 33/7/1
f 32/67/1 40/20/1 41/68/1
f 1/3/5 36/69/5 2/15/5
f 28/21/5 35/70/5 36/69/5
f 29/60/5 34/14/5 35/71/5
f 2/72/4 25/73/4 6/74/4
f 36/75/4 26/76/4 25/73/4
f 35/77/4 27/12/4 26/78/4
f 7/79/3 27/80/3 8/81/3
f 31/18/3 26/82/3 27/80/3
f 32/65/3 25/9/3 26/83/3
f 5/1/1 12/64/1 11/2/1
f 3/4/2 7/17/2 8/5/2
f 33/7/3 5/1/3 6/8/3
f 34/10/4 4/84/4 8/11/4
f 30/13/5 3/4/5 4/6/5
f 5/1/6 1/3/6 2/15/6
f 3/4/1 9/59/1 10/16/1
f 31/18/1 7/79/1 10/19/1
f 28/21/1 1/3/1 11/2/1
f 46/23/1 14/35/1 13/24/1
f 15/26/7 24/85/7 23/27/7
f 11/29/3 15/86/3 43/30/3
f 10/32/5 14/87/5 46/33/5
f 14/35/8 20/88/8 19/36/8
f 12/37/2 16/42/2 21/89/2
f 16/42/2 23/90/2 21/89/2
f 24/91/2 15/86/2 22/38/2
f 15/86/2 11/29/2 22/38/2
f 12/37/2 21/89/2 22/38/2
f 9/39/6 13/92/6 17/93/6
f 13/92/6 19/94/6 17/93/6
f 20/95/6 14/87/6 18/40/6
f 14/87/6 10/32/6 18/40/6
f 9/39/6 17/93/6 18/40/6
f 42/41/5 48/44/5 16/42/5
f 41/43/5 47/96/5 48/44/5
f 40/34/5 46/33/5 47/45/5
f 39/47/3 45/51/3 13/48/3
f 38/50/3 44/97/3 45/51/3
f 37/31/3 43/30/3 44/52/3
f 16/28/1 48/55/1 43/54/1
f 48/55/1 47/98/1 44/56/1
f 47/57/1 46/23/1 45/25/1
f 30/13/1 39/61/1 9/59/1
f 29/60/1 38/99/1 39/61/1
f 29/62/1 28/21/1 37/22/1
f 33/7/1 42/66/1 12/64/1
f 32/65/1 41/100/1 42/66/1
f 32/67/1 31/18/1 40/20/1
f 1/3/5 28/21/5 36/69/5
f 28/21/5 29/62/5 35/70/5
f 29/60/5 30/13/5 34/14/5
f 2/72/4 36/75/4 25/73/4
f 36/75/4 35/101/4 26/76/4
f 35/77/4 34/10/4 27/12/4
f 7/79/3 31/18/3 27/80/3
f 31/18/3 32/67/3 26/82/3
f 32/65/3 33/7/3 25/9/3
