# Blender v2.90.1 OBJ File: 'airHockey_Arena.blend'
# www.blender.org
mtllib airHockey_Arena.mtl
o Cube
v 1.702111 0.265199 -3.611124
v 1.702111 -0.265199 -3.611124
v 1.702111 0.265199 3.611124
v 1.702111 -0.265199 3.611124
v -1.702111 0.265199 -3.611124
v -1.702111 -0.265199 -3.611124
v -1.702111 0.265199 3.611124
v -1.702111 -0.265199 3.611124
v 1.522415 0.265199 3.229888
v -1.522415 0.265199 3.229888
v 1.522415 0.265199 -3.229888
v -1.522415 0.265199 -3.229888
v 1.522415 0.047285 3.229888
v -1.522415 0.047285 3.229888
v 1.522415 0.047285 -3.229888
v -1.522415 0.047285 -3.229888
v 0.532845 0.123462 3.229888
v -0.532845 0.123462 3.229888
v 0.532845 0.047192 3.229888
v -0.532845 0.047192 3.229888
v -0.532845 0.123462 -3.229888
v 0.532845 0.123462 -3.229888
v -0.532845 0.047192 -3.229888
v 0.532845 0.047192 -3.229888
v -1.702111 -0.265199 -1.805562
v -1.702111 -0.265199 0.000000
v -1.702111 -0.265199 1.805562
v 1.702111 0.265199 -1.805562
v 1.702111 0.265199 0.000000
v 1.702111 0.265199 1.805562
v -1.702111 0.265199 1.805562
v -1.702111 0.265199 0.000000
v -1.702111 0.265199 -1.805562
v 1.702111 -0.265199 1.805562
v 1.702111 -0.265199 0.000000
v 1.702111 -0.265199 -1.805562
v 1.522415 0.265199 -1.614944
v 1.522415 0.265199 0.000000
v 1.522415 0.265199 1.614944
v -1.522415 0.265199 1.614944
v -1.522415 0.265199 0.000000
v -1.522415 0.265199 -1.614944
v 1.522415 0.047285 -1.614944
v 1.522415 0.047285 0.000000
v 1.522415 0.047285 1.614944
v -1.522415 0.047285 1.614944
v -1.522415 0.047285 0.000000
v -1.522415 0.047285 -1.614944
vt 0.354778 0.504594
vt 0.357550 0.259101
vt 0.371821 0.265670
vt 0.373267 0.498028
vt 0.761049 0.302714
vt 0.556642 0.228113
vt 0.494570 0.006518
vt 0.797246 0.005157
vt 0.145181 0.069566
vt 0.404940 0.215215
vt 0.108202 0.136535
vt 0.274586 0.810021
vt 0.533289 0.810021
vt 0.533289 0.874697
vt 0.274586 0.874697
vt 0.739264 0.357785
vt 0.524350 0.270705
vt 0.016130 0.545483
vt 0.543082 0.225488
vt 0.483463 0.026267
vt 0.758703 0.463345
vt 0.682963 0.463345
vt 0.698955 0.447353
vt 0.766699 0.447353
vt 0.404985 0.565039
vt 0.426976 0.562740
vt 0.933966 0.574965
vt 0.933966 0.841366
vt 0.867365 0.841366
vt 0.867365 0.574965
vt 0.274586 0.988889
vt 0.502071 0.988889
vt 0.274720 0.996829
vt 0.274619 0.992859
vt 0.993652 0.069828
vt 0.993652 0.137572
vt 0.869182 0.137572
vt 0.869182 0.069828
vt 0.682437 0.515097
vt 0.682437 0.582841
vt 0.557967 0.582841
vt 0.557967 0.515097
vt 0.858068 0.575122
vt 0.862716 0.575003
vt 0.993652 0.408546
vt 0.869182 0.408546
vt 0.869128 0.320479
vt 0.912693 0.320479
vt 0.912693 0.225638
vt 0.869128 0.225638
vt 0.682437 0.853815
vt 0.557967 0.853815
vt 0.557913 0.765748
vt 0.601478 0.765748
vt 0.601478 0.670907
vt 0.557913 0.670907
vt 0.993652 0.476289
vt 0.869182 0.476289
vt 0.993652 0.544033
vt 0.869182 0.544033
vt 0.682437 0.447353
vt 0.557967 0.447353
vt 0.502521 0.875147
vt 0.560369 0.875147
vt 0.560369 0.981434
vt 0.502521 0.981434
vt 0.618217 0.875147
vt 0.618217 0.981434
vt 0.993652 0.002084
vt 0.869182 0.002085
vt 0.274586 0.932018
vt 0.502071 0.932018
vt 0.274586 0.875147
vt 0.502071 0.875147
vt 1.000566 0.574965
vt 1.000566 0.841366
vt 0.510277 0.269168
vt 0.495982 0.323852
vt 0.484509 0.317769
vt 0.445045 0.651823
vt 0.464011 0.643080
vt 0.422112 0.220059
vt 0.450597 0.153348
vt 0.464010 0.163239
vt 0.834443 0.463345
vt 0.834443 0.447353
vt 0.040062 0.663457
vt 0.065806 0.758145
vt 0.716969 0.413032
vt 0.696014 0.849067
vt 0.998973 0.849067
vt 0.998973 0.924806
vt 0.696014 0.924806
vt 0.998973 1.000546
vt 0.696014 1.000546
vt 0.274586 0.745346
vt 0.533289 0.745346
vt 0.682964 0.766304
vt 0.758703 0.766304
vt 0.834443 0.766304
vt 0.182860 0.002632
vn 0.0000 1.0000 0.0000
vn 0.0000 0.0000 1.0000
vn -1.0000 0.0000 0.0000
vn 0.0000 -1.0000 0.0000
vn 1.0000 0.0000 0.0000
vn 0.0000 0.0000 -1.0000
vn 0.0000 0.0026 -1.0000
vn 0.0000 0.0026 1.0000
usemtl Material
s off
f 1/1/1 5/2/1 12/3/1 11/4/1
f 4/5/2 3/6/2 7/7/2 8/8/2
f 25/9/3 33/10/3 5/2/3 6/11/3
f 27/12/4 34/13/4 4/14/4 8/15/4
f 34/16/5 30/17/5 3/6/5 4/5/5
f 6/11/6 5/2/6 1/1/6 2/18/6
f 7/7/1 3/6/1 9/19/1 10/20/1
f 31/21/1 7/22/1 10/23/1 40/24/1
f 28/25/1 1/1/1 11/4/1 37/26/1
f 45/27/1 46/28/1 14/29/1 13/30/1
f 16/31/7 15/32/7 24/33/7 23/34/7
f 37/35/3 11/36/3 15/37/3 43/38/3
f 40/39/5 10/40/5 14/41/5 46/42/5
f 13/30/8 14/29/8 20/43/8 19/44/8
f 11/36/2 12/45/2 16/46/2 23/47/2 21/48/2 22/49/2 24/50/2 15/37/2
f 10/40/6 9/51/6 13/52/6 19/53/6 17/54/6 18/55/6 20/56/6 14/41/6
f 12/45/5 42/57/5 48/58/5 16/46/5
f 42/57/5 41/59/5 47/60/5 48/58/5
f 41/61/5 40/39/5 46/42/5 47/62/5
f 9/63/3 39/64/3 45/65/3 13/66/3
f 39/64/3 38/67/3 44/68/3 45/65/3
f 38/69/3 37/35/3 43/38/3 44/70/3
f 15/32/1 16/31/1 48/71/1 43/72/1
f 43/72/1 48/71/1 47/73/1 44/74/1
f 44/75/1 47/76/1 46/28/1 45/27/1
f 3/6/1 30/17/1 39/77/1 9/19/1
f 30/17/1 29/78/1 38/79/1 39/77/1
f 29/80/1 28/25/1 37/26/1 38/81/1
f 5/2/1 33/10/1 42/82/1 12/3/1
f 33/10/1 32/83/1 41/84/1 42/82/1
f 32/85/1 31/21/1 40/24/1 41/86/1
f 2/18/5 1/1/5 28/25/5 36/87/5
f 36/87/5 28/25/5 29/80/5 35/88/5
f 35/89/5 29/78/5 30/17/5 34/16/5
f 6/90/4 2/91/4 36/92/4 25/93/4
f 25/93/4 36/92/4 35/94/4 26/95/4
f 26/96/4 35/97/4 34/13/4 27/12/4
f 8/98/3 7/22/3 31/21/3 27/99/3
f 27/99/3 31/21/3 32/85/3 26/100/3
f 26/101/3 32/83/3 33/10/3 25/9/3
